<?xml version="1.0" encoding="utf-8"?>
<!-- Generator: Adobe Illustrator 19.2.0, SVG Export Plug-In . SVG Version: 6.00 Build 0)  -->
<svg version="1.1" id="Layer_1" xmlns="http://www.w3.org/2000/svg" xmlns:xlink="http://www.w3.org/1999/xlink" x="0px" y="0px"
	 viewBox="0 0 161 30" style="enable-background:new 0 0 161 30;" xml:space="preserve">
<style type="text/css">
	.st0{fill:#FFFFFF;}
</style>
<g>
	<g>
		<path class="st0" d="M155.1,16.3c0,1-0.4,2.1-1.1,3c-1,1.3-2.3,2.3-3.8,3c-0.8,0.4-1.6,0.7-2.4,1.1c-1.5,0.7-2.7,1.8-3.8,3
			c-0.8,0.9-1.9,1.4-3.2,1.4c-0.6,0-1.1-0.2-1.6-0.5c-0.7-0.5-1.3-1.1-1.6-1.8c-0.4-0.7-0.4-1.5-0.1-2.2c0.5-1.3,1.3-2.3,2.5-2.9
			c0.7-0.4,1.5-0.4,2.3-0.6c0.8-0.1,1.6-0.3,2.3-0.7c1.1-0.8,1.8-1.9,1.9-3.3c0.1-1-0.2-1.9-0.3-2.8c-0.1-1-0.2-2,0.3-2.9
			c0.3-0.6,0.7-1.1,1.3-1.4c0.7-0.4,1.4-0.4,2.2-0.1c1,0.4,1.7,1.1,2.4,1.9c0.9,1,1.7,2.1,2.2,3.4C154.9,14.6,155.1,15.4,155.1,16.3
			z"/>
		<path class="st0" d="M149.6,5.4c0-1.3,0.9-2.7,2.1-3.1c0.8-0.3,1.6,0.1,1.8,1c0.3,1.3-0.7,3.2-2,3.7
			C150.4,7.3,149.6,6.6,149.6,5.4z"/>
		<path class="st0" d="M155.8,7.1c-0.1,0.7-0.5,1.4-1.4,1.8c-0.8,0.4-1.5,0-1.6-0.9s0.7-2,1.5-2.3C155.3,5.5,155.9,6,155.8,7.1z"/>
		<path class="st0" d="M157.4,9.3c0,0.8-0.7,1.7-1.5,1.8c-0.6,0.1-1-0.2-1-0.8c0-0.8,0.7-1.6,1.5-1.8C157,8.4,157.4,8.7,157.4,9.3z"
			/>
		<path class="st0" d="M156.7,13c-0.5,0-0.8-0.4-0.7-0.8c0.1-0.6,0.8-1.1,1.4-1.1c0.5,0,0.8,0.4,0.7,0.9
			C157.9,12.4,157.3,13,156.7,13z"/>
		<path class="st0" d="M156.3,14.3c0-0.5,0.4-1.1,0.9-1.1c0.4-0.1,0.7,0.2,0.7,0.6c0,0.5-0.4,1-0.9,1.1
			C156.6,15,156.3,14.7,156.3,14.3z"/>
	</g>
</g>
<g>
	<path class="st0" d="M6,23.6V11.9H4.1V10H6V9.4c0-1.9,0.4-3.6,1.6-4.7c0.9-0.9,2.2-1.3,3.3-1.3c0.9,0,1.6,0.2,2.1,0.4l-0.3,1.9
		c-0.4-0.2-0.9-0.3-1.6-0.3C9,5.4,8.5,7.2,8.5,9.3V10h3.3v1.9H8.4v11.7C8.4,23.6,6,23.6,6,23.6z"/>
	<path class="st0" d="M25.8,16.7c0,5-3.5,7.2-6.7,7.2c-3.7,0-6.5-2.7-6.5-7c0-4.5,3-7.2,6.7-7.2C23.1,9.7,25.8,12.5,25.8,16.7z
		 M15,16.8c0,3,1.7,5.2,4.1,5.2s4.1-2.2,4.1-5.3c0-2.3-1.1-5.2-4.1-5.2S15,14.3,15,16.8z"/>
	<path class="st0" d="M41.2,16.7c0,5-3.5,7.2-6.7,7.2c-3.7,0-6.5-2.7-6.5-7c0-4.5,3-7.2,6.7-7.2C38.5,9.7,41.2,12.5,41.2,16.7z
		 M30.4,16.8c0,3,1.7,5.2,4.1,5.2s4.1-2.2,4.1-5.3c0-2.3-1.1-5.2-4.1-5.2S30.4,14.3,30.4,16.8z"/>
	<path class="st0" d="M47.2,6.1V10h3.5v1.9h-3.5v7.3c0,1.7,0.5,2.6,1.8,2.6c0.6,0,1.1-0.1,1.4-0.2l0.1,1.8c-0.5,0.2-1.2,0.3-2.2,0.3
		c-1.1,0-2.1-0.4-2.7-1c-0.7-0.7-1-1.9-1-3.5v-7.4h-2.1V10h2.1V6.8L47.2,6.1z"/>
	<path class="st0" d="M54.8,10l1.8,6.9c0.4,1.5,0.8,2.9,1,4.3h0.1c0.3-1.4,0.8-2.8,1.2-4.3l2.2-6.9h2.1l2.1,6.8
		c0.5,1.6,0.9,3.1,1.2,4.4h0.1c0.2-1.4,0.6-2.8,1-4.4l1.9-6.8h2.4l-4.4,13.6h-2.2l-2.1-6.5c-0.5-1.5-0.9-2.9-1.2-4.5h0
		c-0.3,1.6-0.8,3-1.2,4.5l-2.2,6.4h-2.2L52.2,10H54.8z"/>
	<path class="st0" d="M86.4,16.7c0,5-3.5,7.2-6.7,7.2c-3.7,0-6.5-2.7-6.5-7c0-4.5,3-7.2,6.7-7.2C83.7,9.7,86.4,12.5,86.4,16.7z
		 M75.6,16.8c0,3,1.7,5.2,4.1,5.2s4.1-2.2,4.1-5.3c0-2.3-1.1-5.2-4.1-5.2C76.9,11.6,75.6,14.3,75.6,16.8z"/>
	<path class="st0" d="M89.5,14.3c0-1.6,0-3-0.1-4.2h2.2l0.1,2.7h0.1c0.6-1.8,2.1-3,3.8-3c0.3,0,0.5,0,0.7,0.1v2.3
		c-0.3-0.1-0.5-0.1-0.8-0.1c-1.7,0-3,1.3-3.3,3.2c-0.1,0.3-0.1,0.7-0.1,1.1v7.2h-2.4v-9.3H89.5z"/>
	<path class="st0" d="M101.2,16.2L101.2,16.2c0.4-0.5,0.9-1.1,1.3-1.5l4-4.7h3l-5.2,5.6l6,8h-3l-4.7-6.5l-1.3,1.4v5.1h-2.4V3.7h2.4
		v12.5H101.2z"/>
	<path class="st0" d="M111.7,22.1c0-1,0.7-1.8,1.7-1.8s1.7,0.7,1.7,1.8c0,1-0.6,1.8-1.7,1.8C112.4,23.9,111.7,23.1,111.7,22.1z"/>
	<path class="st0" d="M114.8,27.5c1.1-0.1,2.1-0.4,2.7-1c0.7-0.8,0.9-1.8,0.9-5.1V10h2.5v12.3c0,2.6-0.4,4.3-1.6,5.6
		c-1.1,1.1-2.9,1.5-4.2,1.5L114.8,27.5z M121.1,6.2c0,0.8-0.6,1.5-1.5,1.5s-1.5-0.7-1.5-1.5c0-0.9,0.6-1.5,1.6-1.5
		C120.5,4.7,121.1,5.3,121.1,6.2z"/>
	<path class="st0" d="M124.5,21.1c0.7,0.5,2,1,3.2,1c1.8,0,2.6-0.9,2.6-2c0-1.2-0.7-1.8-2.5-2.5c-2.4-0.9-3.6-2.2-3.6-3.8
		c0-2.2,1.8-4,4.7-4c1.4,0,2.6,0.4,3.3,0.8l-0.6,1.8c-0.5-0.3-1.5-0.8-2.8-0.8c-1.5,0-2.3,0.8-2.3,1.8c0,1.1,0.8,1.6,2.6,2.3
		c2.4,0.9,3.6,2.1,3.6,4.1c0,2.4-1.8,4.1-5.1,4.1c-1.5,0-2.9-0.4-3.8-0.9L124.5,21.1z"/>
</g>
</svg>
