<?xml version="1.0" encoding="utf-8"?>
<!-- Generator: Adobe Illustrator 19.2.0, SVG Export Plug-In . SVG Version: 6.00 Build 0)  -->
<svg version="1.1" id="Layer_1" xmlns="http://www.w3.org/2000/svg" xmlns:xlink="http://www.w3.org/1999/xlink" x="0px" y="0px"
	 viewBox="0 0 120 147" style="enable-background:new 0 0 120 147;" xml:space="preserve">
<style type="text/css">
	.st0{fill:#FFFFFF;}
</style>
<g>
	<g>
		<path class="st0" d="M101.9,80.9c-0.1,5.8-2.4,11.6-6.4,16.7c-5.8,7.5-13.1,12.9-21.6,16.8c-4.4,2.1-8.9,4.1-13.3,6.2
			c-8.6,4.1-15.5,10.1-21.7,17.2c-4.7,5.3-10.7,8.2-18,7.9c-3.3-0.1-6.3-1.2-9-3.1c-3.8-2.8-7.1-6.1-9.3-10.4
			c-2.1-4.1-2.5-8.3-0.8-12.6c2.7-7.2,7.3-13,14.4-16.3c4.1-2,8.7-2.5,13.1-3.3c4.5-0.8,9-1.5,12.8-4.2c6.5-4.4,10.2-10.6,10.8-18.4
			c0.4-5.4-0.9-10.7-1.7-16c-0.8-5.6-1-11.1,1.9-16.3c1.8-3.3,4.2-6.1,7.5-8c4-2.2,8.1-2.1,12.2-0.4c5.6,2.3,9.8,6.3,13.8,10.6
			c5.3,5.7,9.8,12,12.7,19.3C100.9,71,101.9,75.5,101.9,80.9z"/>
		<path class="st0" d="M71.2,19c0.2-7.6,5.3-15,12.1-17.5C88.1-0.3,92.5,2,93.7,7c1.8,7.5-4.1,18.1-11.5,20.7
			C75.8,29.9,71,26.1,71.2,19z"/>
		<path class="st0" d="M106.3,28.8c-0.5,3.9-3,7.8-7.7,10.1c-4.5,2.2-8.3-0.1-8.8-5.1c-0.4-4.9,3.9-11.4,8.6-12.8
			C103.2,19.7,106.6,22.4,106.3,28.8z"/>
		<path class="st0" d="M115.4,41.3c0,4.4-4,9.4-8.3,10.2c-3.4,0.7-5.7-1.3-5.7-4.7c0-4.4,4.1-9.3,8.4-10.1
			C113.1,36,115.4,37.8,115.4,41.3z"/>
		<path class="st0" d="M111,61.9c-2.9,0-4.5-2-3.9-4.8c0.8-3.4,4.6-6.4,8-6.4c2.9,0,4.5,2.1,3.8,4.9C118.1,58.9,114.4,61.9,111,61.9
			z"/>
		<path class="st0" d="M109.1,69.6c0-2.9,2.5-6,5.3-6.5c2.3-0.4,3.9,1,3.7,3.3c-0.1,2.8-2.5,5.7-5.2,6.3
			C110.7,73.2,109.1,71.9,109.1,69.6z"/>
	</g>
</g>
</svg>
